<svg viewBox="0 0 330 200" xmlns="http://www.w3.org/2000/svg"><g><g><g><g><g><line x1="72.4375" y1="176" x2="67.4375" y2="176" style="visibility: inherit;" fill="rgb(0, 0, 0)" stroke="rgb(204, 204, 204)" stroke-width="1px"></line><line x1="72.4375" y1="162.46153846153848" x2="67.4375" y2="162.46153846153848" style="visibility: inherit;" fill="rgb(0, 0, 0)" stroke="rgb(204, 204, 204)" stroke-width="1px"></line><line x1="72.4375" y1="148.92307692307693" x2="67.4375" y2="148.92307692307693" style="visibility: inherit;" fill="rgb(0, 0, 0)" stroke="rgb(204, 204, 204)" stroke-width="1px"></line><line x1="72.4375" y1="135.38461538461536" x2="67.4375" y2="135.38461538461536" style="visibility: inherit;" fill="rgb(0, 0, 0)" stroke="rgb(204, 204, 204)" stroke-width="1px"></line><line x1="72.4375" y1="121.84615384615384" x2="67.4375" y2="121.84615384615384" style="visibility: inherit;" fill="rgb(0, 0, 0)" stroke="rgb(204, 204, 204)" stroke-width="1px"></line><line x1="72.4375" y1="108.30769230769232" x2="67.4375" y2="108.30769230769232" style="visibility: inherit;" fill="rgb(0, 0, 0)" stroke="rgb(204, 204, 204)" stroke-width="1px"></line><line x1="72.4375" y1="94.76923076923075" x2="67.4375" y2="94.76923076923075" style="visibility: inherit;" fill="rgb(0, 0, 0)" stroke="rgb(204, 204, 204)" stroke-width="1px"></line><line x1="72.4375" y1="81.23076923076924" x2="67.4375" y2="81.23076923076924" style="visibility: inherit;" fill="rgb(0, 0, 0)" stroke="rgb(204, 204, 204)" stroke-width="1px"></line><line x1="72.4375" y1="67.69230769230768" x2="67.4375" y2="67.69230769230768" style="visibility: inherit;" fill="rgb(0, 0, 0)" stroke="rgb(204, 204, 204)" stroke-width="1px"></line><line x1="72.4375" y1="54.15384615384614" x2="67.4375" y2="54.15384615384614" style="visibility: inherit;" fill="rgb(0, 0, 0)" stroke="rgb(204, 204, 204)" stroke-width="1px"></line><line x1="72.4375" y1="40.615384615384606" x2="67.4375" y2="40.615384615384606" style="visibility: inherit;" fill="rgb(0, 0, 0)" stroke="rgb(204, 204, 204)" stroke-width="1px"></line><line x1="72.4375" y1="27.07692307692306" x2="67.4375" y2="27.07692307692306" style="visibility: inherit;" fill="rgb(0, 0, 0)" stroke="rgb(204, 204, 204)" stroke-width="1px"></line><line x1="72.4375" y1="13.53846153846151" x2="67.4375" y2="13.53846153846151" style="visibility: inherit;" fill="rgb(0, 0, 0)" stroke="rgb(204, 204, 204)" stroke-width="1px"></line></g><g transform="translate(62.4375, 0)"><text x="0" y="176" dx="0em" dy="0.3em" style="text-anchor: end; visibility: hidden; font-family: Roboto, sans-serif; font-size: 12px; font-weight: 200;" fill="rgb(50, 49, 63)" stroke="none" stroke-width="1px">-2e-4</text><text x="0" y="162.46153846153848" dx="0em" dy="0.3em" style="text-anchor: end; visibility: inherit; font-family: Roboto, sans-serif; font-size: 12px; font-weight: 200;" fill="rgb(50, 49, 63)" stroke="none" stroke-width="1px">0</text><text x="0" y="148.92307692307693" dx="0em" dy="0.3em" style="text-anchor: end; visibility: hidden; font-family: Roboto, sans-serif; font-size: 12px; font-weight: 200;" fill="rgb(50, 49, 63)" stroke="none" stroke-width="1px">2e-4</text><text x="0" y="135.38461538461536" dx="0em" dy="0.3em" style="text-anchor: end; visibility: inherit; font-family: Roboto, sans-serif; font-size: 12px; font-weight: 200;" fill="rgb(50, 49, 63)" stroke="none" stroke-width="1px">4e-4</text><text x="0" y="121.84615384615384" dx="0em" dy="0.3em" style="text-anchor: end; visibility: hidden; font-family: Roboto, sans-serif; font-size: 12px; font-weight: 200;" fill="rgb(50, 49, 63)" stroke="none" stroke-width="1px">6e-4</text><text x="0" y="108.30769230769232" dx="0em" dy="0.3em" style="text-anchor: end; visibility: inherit; font-family: Roboto, sans-serif; font-size: 12px; font-weight: 200;" fill="rgb(50, 49, 63)" stroke="none" stroke-width="1px">8e-4</text><text x="0" y="94.76923076923075" dx="0em" dy="0.3em" style="text-anchor: end; visibility: hidden; font-family: Roboto, sans-serif; font-size: 12px; font-weight: 200;" fill="rgb(50, 49, 63)" stroke="none" stroke-width="1px">1e-3</text><text x="0" y="81.23076923076924" dx="0em" dy="0.3em" style="text-anchor: end; visibility: inherit; font-family: Roboto, sans-serif; font-size: 12px; font-weight: 200;" fill="rgb(50, 49, 63)" stroke="none" stroke-width="1px">1.2e-3</text><text x="0" y="67.69230769230768" dx="0em" dy="0.3em" style="text-anchor: end; visibility: hidden; font-family: Roboto, sans-serif; font-size: 12px; font-weight: 200;" fill="rgb(50, 49, 63)" stroke="none" stroke-width="1px">1.4e-3</text><text x="0" y="54.15384615384614" dx="0em" dy="0.3em" style="text-anchor: end; visibility: inherit; font-family: Roboto, sans-serif; font-size: 12px; font-weight: 200;" fill="rgb(50, 49, 63)" stroke="none" stroke-width="1px">1.6e-3</text><text x="0" y="40.615384615384606" dx="0em" dy="0.3em" style="text-anchor: end; visibility: hidden; font-family: Roboto, sans-serif; font-size: 12px; font-weight: 200;" fill="rgb(50, 49, 63)" stroke="none" stroke-width="1px">1.8e-3</text><text x="0" y="27.07692307692306" dx="0em" dy="0.3em" style="text-anchor: end; visibility: inherit; font-family: Roboto, sans-serif; font-size: 12px; font-weight: 200;" fill="rgb(50, 49, 63)" stroke="none" stroke-width="1px">2e-3</text><text x="0" y="13.53846153846151" dx="0em" dy="0.3em" style="text-anchor: end; visibility: hidden; font-family: Roboto, sans-serif; font-size: 12px; font-weight: 200;" fill="rgb(50, 49, 63)" stroke="none" stroke-width="1px">2.2e-3</text></g><line x1="72.4375" y1="0" x2="72.4375" y2="176" fill="rgb(0, 0, 0)" stroke="rgb(204, 204, 204)" stroke-width="1px"></line></g></g><g transform="translate(72, 0)" clip-path="url(#clip_0)"><clipPath id="clip_0"><rect width="257" height="176"></rect></clipPath><g><g><g><line x1="0" y1="0" x2="0" y2="176" fill="rgb(0, 0, 0)" stroke="rgb(60, 60, 60)" stroke-width="1px" opacity="0.25"></line><line x1="32.1953125" y1="0" x2="32.1953125" y2="176" fill="rgb(0, 0, 0)" stroke="rgb(60, 60, 60)" stroke-width="1px" opacity="0.25"></line><line x1="64.390625" y1="0" x2="64.390625" y2="176" fill="rgb(0, 0, 0)" stroke="rgb(60, 60, 60)" stroke-width="1px" opacity="0.25"></line><line x1="96.5859375" y1="0" x2="96.5859375" y2="176" fill="rgb(0, 0, 0)" stroke="rgb(60, 60, 60)" stroke-width="1px" opacity="0.25"></line><line x1="128.78125" y1="0" x2="128.78125" y2="176" fill="rgb(0, 0, 0)" stroke="rgb(60, 60, 60)" stroke-width="1px" opacity="0.25"></line><line x1="160.9765625" y1="0" x2="160.9765625" y2="176" fill="rgb(0, 0, 0)" stroke="rgb(60, 60, 60)" stroke-width="1px" opacity="0.25"></line><line x1="193.171875" y1="0" x2="193.171875" y2="176" fill="rgb(0, 0, 0)" stroke="rgb(60, 60, 60)" stroke-width="1px" opacity="0.25"></line><line x1="225.3671875" y1="0" x2="225.3671875" y2="176" fill="rgb(0, 0, 0)" stroke="rgb(60, 60, 60)" stroke-width="1px" opacity="0.25"></line><line x1="257.5625" y1="0" x2="257.5625" y2="176" fill="rgb(0, 0, 0)" stroke="rgb(60, 60, 60)" stroke-width="1px" opacity="0.25"></line></g><g><line x1="0" y1="176" x2="257.5625" y2="176" fill="rgb(0, 0, 0)" stroke="rgb(60, 60, 60)" stroke-width="1px" opacity="0.25"></line><line x1="0" y1="162.46153846153848" x2="257.5625" y2="162.46153846153848" fill="rgb(0, 0, 0)" stroke="rgb(60, 60, 60)" stroke-width="1px" opacity="0.25"></line><line x1="0" y1="148.92307692307693" x2="257.5625" y2="148.92307692307693" fill="rgb(0, 0, 0)" stroke="rgb(60, 60, 60)" stroke-width="1px" opacity="0.25"></line><line x1="0" y1="135.38461538461536" x2="257.5625" y2="135.38461538461536" fill="rgb(0, 0, 0)" stroke="rgb(60, 60, 60)" stroke-width="1px" opacity="0.25"></line><line x1="0" y1="121.84615384615384" x2="257.5625" y2="121.84615384615384" fill="rgb(0, 0, 0)" stroke="rgb(60, 60, 60)" stroke-width="1px" opacity="0.25"></line><line x1="0" y1="108.30769230769232" x2="257.5625" y2="108.30769230769232" fill="rgb(0, 0, 0)" stroke="rgb(60, 60, 60)" stroke-width="1px" opacity="0.25"></line><line x1="0" y1="94.76923076923075" x2="257.5625" y2="94.76923076923075" fill="rgb(0, 0, 0)" stroke="rgb(60, 60, 60)" stroke-width="1px" opacity="0.25"></line><line x1="0" y1="81.23076923076924" x2="257.5625" y2="81.23076923076924" fill="rgb(0, 0, 0)" stroke="rgb(60, 60, 60)" stroke-width="1px" opacity="0.25"></line><line x1="0" y1="67.69230769230768" x2="257.5625" y2="67.69230769230768" fill="rgb(0, 0, 0)" stroke="rgb(60, 60, 60)" stroke-width="1px" opacity="0.25"></line><line x1="0" y1="54.15384615384614" x2="257.5625" y2="54.15384615384614" fill="rgb(0, 0, 0)" stroke="rgb(60, 60, 60)" stroke-width="1px" opacity="0.25"></line><line x1="0" y1="40.615384615384606" x2="257.5625" y2="40.615384615384606" fill="rgb(0, 0, 0)" stroke="rgb(60, 60, 60)" stroke-width="1px" opacity="0.25"></line><line x1="0" y1="27.07692307692306" x2="257.5625" y2="27.07692307692306" fill="rgb(0, 0, 0)" stroke="rgb(60, 60, 60)" stroke-width="1px" opacity="0.25"></line><line x1="0" y1="13.53846153846151" x2="257.5625" y2="13.53846153846151" fill="rgb(0, 0, 0)" stroke="rgb(60, 60, 60)" stroke-width="1px" opacity="0.25"></line></g></g></g><g><g><line x1="0" y1="162.46153846153848" x2="257.5625" y2="162.46153846153848" fill="rgb(0, 0, 0)" stroke="rgb(153, 153, 153)" stroke-width="1.5px"></line></g></g><g><g><line x1="32.1953125" y1="0" x2="32.1953125" y2="176" fill="rgb(0, 0, 0)" stroke="rgb(153, 153, 153)" stroke-width="1.5px"></line></g></g><g><g><g><g><g><path stroke="rgb(255, 112, 67)" stroke-width="2px" d="M35.41484375,120.32307521712322L35.41484375,120.32307521712322L38.634375,117.81915160734059L41.85390625,114.4591052466898L45.0734375,110.61667603290631L48.29296875,106.45265137993714L51.5125,102.06254063197656L54.73203125,97.51185910228293L57.9515625,92.84780513143318L61.17109375,88.10461615478451L64.390625,83.30690093911439L67.61015625,78.47207415148279L70.8296875,73.61227910477466L74.04921875,68.73585182481305L77.26875,63.84844273187325L80.48828125,58.95383517765362L83.7078125,54.05454607165653L86.92734375,49.15222790475031L90.146875,44.24795677505082L93.36640625,39.34243748014188L96.5859375,34.4361215170736L99.80546875,31.4929808297679L103.025,29.72886122084812L106.24453125,28.67329838083967L109.4640625,28.044017578396737L112.68359375,27.671676546576634L115.903125,27.454652329985386L119.12265625,27.33197163004202L122.3421875,27.267056942808715L125.56171875,27.237961827355022L128.78125,27.231518441147294L132.00078125,27.23981978217438L135.2203125,27.258127956327364L138.43984375,27.283593923747063L141.659375,27.31451456516004L144.87890625,27.3498617047495L148.0984375,27.389012132701396L151.31796875,27.431604531795784L154.5375,27.477415807353054L157.75703125,27.526305798219266L160.9765625,27.5781967120333L164.19609375,27.63303556903633L167.415625,27.69079688570774L170.63515625,27.75145276325814L173.8546875,27.81499907108765L177.07421875,27.881427026497917L180.29375,27.95071875119463L183.51328125,28.022882431213134L186.7328125,28.097904065162176L189.95234375,28.17578155654425L193.171875,28.25651364746078L196.39140625,28.340093278835145L199.6109375,28.42651621522133L202.83046875,28.515786219689183L206.05,28.607892941405623L209.26953125,28.702836474208375L212.4890625,28.8006042657251L215.70859375,28.901201393207266L218.928125,29.004618294330974L222.14765625,29.11085553603921L225.3671875,29.219907154160374L228.58671875,29.331763265854065L231.80625,29.446417941416094L235.02578125,29.563873927361342L238.2453125,29.684126567261284L241.46484375,29.807166762921376L244.684375,29.932989055424994L247.90390625,30.0615870172533L251.1234375,30.192959944063816" style="fill: none;" fill="none"></path></g></g></g></g><g opacity="0.2"><g><g><g><path stroke="rgb(255, 112, 67)" stroke-width="2px" d="M35.41484375,120.32307521712322L35.41484375,120.32307521712322L38.634375,115.41538494194928L41.85390625,110.50769072656446L45.0734375,105.60000045139054L48.29296875,100.69230623600573L51.5125,95.78461202062093L54.73203125,90.876921745447L57.9515625,85.96923147027307L61.17109375,81.06153331467738L64.390625,76.15384303950344L67.61015625,71.24614488390775L70.8296875,66.33845460873383L74.04921875,61.430764333559914L77.26875,56.52307405838599L80.48828125,51.615375902790284L83.7078125,46.70768562761636L86.92734375,41.79999535244243L90.146875,36.89229719684673L93.36640625,31.9846069216728L96.5859375,27.076916646498894L99.80546875,27.07836664410737L103.025,27.0827166369328L106.24453125,27.089966624975183L109.4640625,27.100100847390973L112.68359375,27.113166586710854L115.903125,27.129116560404096L119.12265625,27.147950768470743L122.3421875,27.169684971754346L125.56171875,27.19431917025492L128.78125,27.22185336397243L132.00078125,27.252271792063326L135.2203125,27.28559021537119L138.43984375,27.32179287305244L141.659375,27.360895525950646L144.87890625,27.402882413222237L148.0984375,27.447737774023622L151.31796875,27.495493130042L154.5375,27.54613272043374L157.75703125,27.5996407843553L160.9765625,27.656033082650243L164.19609375,27.715293854475L167.415625,27.777438860673165L170.63515625,27.842436579557557L173.8546875,27.91031853281533L177.07421875,27.981068959602922L180.29375,28.054656338233208L183.51328125,28.131127951236863L186.7328125,28.210436516083192L189.95234375,28.29259779361577L193.171875,28.377611783834595L196.39140625,28.465462725896096L199.6109375,28.556150619800256L202.83046875,28.649691226390683L206.05,28.7460530239802L209.26953125,28.845251773412393L212.4890625,28.947255953000127L215.70859375,29.05209708443054L218.928125,29.159743646016473L222.14765625,29.27021139860151L225.3671875,29.383484581342096L228.58671875,29.499547433394646L231.80625,29.61839995475915L235.02578125,29.740057906279176L238.2453125,29.86450552711119L241.46484375,29.991727056411587L244.684375,30.121722494180368L247.90390625,30.254483959995774L251.1234375,30.390019334279565" style="fill: none;" fill="none"></path></g></g></g></g></g></g><g transform="translate(72, 176)" clip-path="url(#clip_1)"><clipPath id="clip_1"><rect width="257" height="24"></rect></clipPath><g><g><line x1="0" y1="0" x2="0" y2="5" style="visibility: inherit;" fill="rgb(0, 0, 0)" stroke="rgb(204, 204, 204)" stroke-width="1px"></line><line x1="32.1953125" y1="0" x2="32.1953125" y2="5" style="visibility: inherit;" fill="rgb(0, 0, 0)" stroke="rgb(204, 204, 204)" stroke-width="1px"></line><line x1="64.390625" y1="0" x2="64.390625" y2="5" style="visibility: inherit;" fill="rgb(0, 0, 0)" stroke="rgb(204, 204, 204)" stroke-width="1px"></line><line x1="96.5859375" y1="0" x2="96.5859375" y2="5" style="visibility: inherit;" fill="rgb(0, 0, 0)" stroke="rgb(204, 204, 204)" stroke-width="1px"></line><line x1="128.78125" y1="0" x2="128.78125" y2="5" style="visibility: inherit;" fill="rgb(0, 0, 0)" stroke="rgb(204, 204, 204)" stroke-width="1px"></line><line x1="160.9765625" y1="0" x2="160.9765625" y2="5" style="visibility: inherit;" fill="rgb(0, 0, 0)" stroke="rgb(204, 204, 204)" stroke-width="1px"></line><line x1="193.171875" y1="0" x2="193.171875" y2="5" style="visibility: inherit;" fill="rgb(0, 0, 0)" stroke="rgb(204, 204, 204)" stroke-width="1px"></line><line x1="225.3671875" y1="0" x2="225.3671875" y2="5" style="visibility: inherit;" fill="rgb(0, 0, 0)" stroke="rgb(204, 204, 204)" stroke-width="1px"></line><line x1="257.5625" y1="0" x2="257.5625" y2="5" style="visibility: inherit;" fill="rgb(0, 0, 0)" stroke="rgb(204, 204, 204)" stroke-width="1px"></line></g><g transform="translate(0, 8)"><text x="0" y="0" dx="0em" dy="0.95em" style="text-anchor: middle; visibility: hidden; font-family: Roboto, sans-serif; font-size: 12px; font-weight: 200;" fill="rgb(50, 49, 63)" stroke="none" stroke-width="1px">-1k</text><text x="32.1953125" y="0" dx="0em" dy="0.95em" style="text-anchor: middle; visibility: inherit; font-family: Roboto, sans-serif; font-size: 12px; font-weight: 200;" fill="rgb(50, 49, 63)" stroke="none" stroke-width="1px">0</text><text x="64.390625" y="0" dx="0em" dy="0.95em" style="text-anchor: middle; visibility: inherit; font-family: Roboto, sans-serif; font-size: 12px; font-weight: 200;" fill="rgb(50, 49, 63)" stroke="none" stroke-width="1px">1k</text><text x="96.5859375" y="0" dx="0em" dy="0.95em" style="text-anchor: middle; visibility: inherit; font-family: Roboto, sans-serif; font-size: 12px; font-weight: 200;" fill="rgb(50, 49, 63)" stroke="none" stroke-width="1px">2k</text><text x="128.78125" y="0" dx="0em" dy="0.95em" style="text-anchor: middle; visibility: inherit; font-family: Roboto, sans-serif; font-size: 12px; font-weight: 200;" fill="rgb(50, 49, 63)" stroke="none" stroke-width="1px">3k</text><text x="160.9765625" y="0" dx="0em" dy="0.95em" style="text-anchor: middle; visibility: inherit; font-family: Roboto, sans-serif; font-size: 12px; font-weight: 200;" fill="rgb(50, 49, 63)" stroke="none" stroke-width="1px">4k</text><text x="193.171875" y="0" dx="0em" dy="0.95em" style="text-anchor: middle; visibility: inherit; font-family: Roboto, sans-serif; font-size: 12px; font-weight: 200;" fill="rgb(50, 49, 63)" stroke="none" stroke-width="1px">5k</text><text x="225.3671875" y="0" dx="0em" dy="0.95em" style="text-anchor: middle; visibility: inherit; font-family: Roboto, sans-serif; font-size: 12px; font-weight: 200;" fill="rgb(50, 49, 63)" stroke="none" stroke-width="1px">6k</text><text x="257.5625" y="0" dx="0em" dy="0.95em" style="text-anchor: middle; visibility: hidden; font-family: Roboto, sans-serif; font-size: 12px; font-weight: 200;" fill="rgb(50, 49, 63)" stroke="none" stroke-width="1px">7k</text></g><line x1="0" y1="0" x2="257.5625" y2="0" fill="rgb(0, 0, 0)" stroke="rgb(204, 204, 204)" stroke-width="1px"></line></g></g></g></g></svg>